HIERARCHY
ROOT joint_Root
{
	OFFSET 0.0 0.0 0.0
	CHANNELS 6 Xposition Yposition Zposition Zrotation Xrotation Yrotation 
	JOINT Hips
	{
		OFFSET 4.5925 91.4895 -427.239
		CHANNELS 6 Xposition Yposition Zposition Zrotation Xrotation Yrotation 
		JOINT Spine
		{
			OFFSET 15.7357 0.0 0.0
			CHANNELS 6 Xposition Yposition Zposition Zrotation Xrotation Yrotation 
			JOINT Chest
			{
				OFFSET 8.98455 -0.406207 0.0
				CHANNELS 6 Xposition Yposition Zposition Zrotation Xrotation Yrotation 
				JOINT Neck
				{
					OFFSET 16.3773 0.0 0.0
					CHANNELS 6 Xposition Yposition Zposition Zrotation Xrotation Yrotation 
					JOINT Head
					{
						OFFSET 6.45672 0.0 0.0
						CHANNELS 6 Xposition Yposition Zposition Zrotation Xrotation Yrotation 
						End Site
						{
							OFFSET 0.0 0.0 0.0
						}
					}
				}
				JOINT Shoulder_L
				{
					OFFSET 12.9942 -0.242716 4.98039
					CHANNELS 6 Xposition Yposition Zposition Zrotation Xrotation Yrotation 
					JOINT UpperArm_L
					{
						OFFSET 5.34809 0.0 0.0
						CHANNELS 6 Xposition Yposition Zposition Zrotation Xrotation Yrotation 
						JOINT LowerArm_L
						{
							OFFSET 24.3286 1.87007e-05 0.0
							CHANNELS 6 Xposition Yposition Zposition Zrotation Xrotation Yrotation 
							JOINT Hand_L
							{
								OFFSET 22.2916 0.0 0.0
								CHANNELS 6 Xposition Yposition Zposition Zrotation Xrotation Yrotation 
								End Site
								{
									OFFSET 0.0 0.0 0.0
								}
							}
						}
					}
				}
				JOINT Shoulder_R
				{
					OFFSET 12.9945 -0.242716 -4.98039
					CHANNELS 6 Xposition Yposition Zposition Zrotation Xrotation Yrotation 
					JOINT UpperArm_R
					{
						OFFSET -5.34813 0.0 0.0
						CHANNELS 6 Xposition Yposition Zposition Zrotation Xrotation Yrotation 
						JOINT LowerArm_R
						{
							OFFSET -24.3289 0.000322201 0.0
							CHANNELS 6 Xposition Yposition Zposition Zrotation Xrotation Yrotation 
							JOINT Hand_R
							{
								OFFSET -22.2915 -0.000108084 0.0
								CHANNELS 6 Xposition Yposition Zposition Zrotation Xrotation Yrotation 
								End Site
								{
									OFFSET 0.0 0.0 0.0
								}
							}
						}
					}
				}
			}
		}
		JOINT UpperLeg_L
		{
			OFFSET -2.19248 -6.46944 0.0
			CHANNELS 6 Xposition Yposition Zposition Zrotation Xrotation Yrotation 
			JOINT LowerLeg_L
			{
				OFFSET 39.0811 0.0 -1.23785e-05
				CHANNELS 6 Xposition Yposition Zposition Zrotation Xrotation Yrotation 
				JOINT Foot_L
				{
					OFFSET 40.9854 0.0 -1.26872e-05
					CHANNELS 6 Xposition Yposition Zposition Zrotation Xrotation Yrotation 
					JOINT Toes_L
					{
						OFFSET 11.7543 0.0 0.0
						CHANNELS 6 Xposition Yposition Zposition Zrotation Xrotation Yrotation 
						End Site
						{
							OFFSET 0.0 0.0 0.0
						}
					}
				}
			}
		}
		JOINT UpperLeg_R
		{
			OFFSET -2.19251 6.46944 0.0
			CHANNELS 6 Xposition Yposition Zposition Zrotation Xrotation Yrotation 
			JOINT LowerLeg_R
			{
				OFFSET -39.0811 -0.00228153 -0.0401928
				CHANNELS 6 Xposition Yposition Zposition Zrotation Xrotation Yrotation 
				JOINT Foot_R
				{
					OFFSET -40.9854 0.0 0.0
					CHANNELS 6 Xposition Yposition Zposition Zrotation Xrotation Yrotation 
					JOINT Toes_R
					{
						OFFSET -11.7543 0.0 0.0
						CHANNELS 6 Xposition Yposition Zposition Zrotation Xrotation Yrotation 
						End Site
						{
							OFFSET 0.0 0.0 0.0
						}
					}
				}
			}
		}
	}
}
MOTION
Frames:	5
Frame Time:	0.0333333
0.000000 0.000000 0.000000 0.000000 0.000000 -0.000000 -0.590195 90.759200 4.265720 87.949800 -1.874680 4.978200 15.735700 0.000005 -0.000001 85.131800 88.110100 -85.686600 8.984550 -0.406207 -0.000000 -4.000870 -0.263614 -1.119340 16.377300 -0.000001 -0.000001 7.897700 -3.270640 2.966940 6.456720 -0.000001 -0.000000 2.164220 -3.283420 1.891430 12.994200 -0.242716 4.980390 -82.666700 -13.054200 -60.327600 5.348090 -0.000007 -0.000001 -45.918300 -62.513900 -90.299100 24.328600 0.000019 0.000005 9.988670 5.045550 -63.437300 22.291600 -0.000001 0.000005 28.294300 5.255490 1.379350 12.994500 -0.242716 -4.980390 94.216600 -10.097300 -67.192500 -5.348130 -0.000001 -0.000004 -65.479700 -59.102200 -100.659000 -24.328900 0.000322 -0.000009 -11.706500 -5.993080 -63.269000 -22.291500 -0.000108 -0.000004 34.000200 5.575810 -9.554360 -2.192480 -6.469440 -0.000000 -174.258000 -9.007460 -1.855250 39.081100 -0.000007 -0.000012 -0.233747 0.411074 29.624000 40.985400 -0.000006 -0.000013 -0.825299 2.794470 -72.680000 11.754300 -0.000000 0.000003 -0.000250 -0.002231 -16.661100 -2.192510 6.469440 -0.000001 177.248000 19.123800 179.308000 -39.081100 -0.002282 -0.040193 0.011651 -0.015382 28.482900 -40.985400 0.000008 0.000006 6.589410 11.940500 -72.679300 -11.754300 -0.000006 -0.000006 -0.086795 -0.119313 -17.316000
0.000000 0.000000 0.000000 0.000000 0.000000 -0.000000 -0.527102 90.870300 4.315970 88.038700 -1.604370 4.294670 15.735700 0.000005 -0.000001 87.839200 88.337200 -88.319100 8.984550 -0.406207 -0.000000 -4.442840 -0.074179 -0.963333 16.377300 -0.000001 -0.000001 7.467200 -3.126530 2.891850 6.456720 -0.000001 -0.000000 1.882310 -3.394860 1.815040 12.994200 -0.242716 4.980390 -81.877100 -13.949700 -59.371800 5.348090 -0.000007 -0.000001 -48.020300 -64.822800 -98.033500 24.328600 0.000019 0.000005 17.184600 7.182690 -67.986000 22.291600 -0.000001 0.000005 35.637800 5.338460 -1.034980 12.994500 -0.242716 -4.980390 94.911100 -10.895200 -65.553900 -5.348130 -0.000001 -0.000004 -56.755000 -63.161400 -99.778600 -24.328900 0.000322 -0.000009 -7.384170 -3.000990 -68.002400 -22.291500 -0.000108 -0.000004 41.164300 5.682290 -21.811700 -2.192480 -6.469440 -0.000000 -174.518000 -8.883040 -2.241480 39.081100 -0.000007 -0.000012 -0.224629 0.405833 28.964900 40.985400 -0.000006 -0.000013 -0.776795 2.847730 -72.356500 11.754300 -0.000000 0.000003 -0.000245 -0.002194 -16.659800 -2.192510 6.469440 -0.000001 177.228000 19.726500 178.945000 -39.081100 -0.002282 -0.040193 0.009936 -0.012516 27.910400 -40.985400 0.000008 0.000006 6.521240 12.311700 -72.377000 -11.754300 -0.000006 -0.000006 -0.120346 -0.159608 -17.347200
0.000000 0.000000 0.000000 0.000000 0.000000 -0.000000 -0.503451 90.898400 4.473900 88.082100 -1.495350 4.141940 15.735700 0.000005 -0.000001 85.635800 88.526900 -86.041300 8.984550 -0.406207 -0.000000 -4.828880 -0.179436 -0.819161 16.377300 -0.000001 -0.000001 7.832050 -3.113040 3.083390 6.456720 -0.000001 -0.000000 2.097670 -3.333810 1.826250 12.994200 -0.242716 4.980390 -81.761900 -13.999400 -59.100000 5.348090 -0.000007 -0.000001 -48.613400 -63.669100 -100.036000 24.328600 0.000019 0.000005 14.650300 6.781780 -65.681300 22.291600 -0.000001 0.000005 35.537400 5.334510 -0.902383 12.994500 -0.242716 -4.980390 95.153300 -10.925100 -64.552600 -5.348130 -0.000001 -0.000004 -52.009600 -62.467000 -97.450100 -24.328900 0.000322 -0.000009 -8.135580 -3.412130 -67.414100 -22.291500 -0.000108 -0.000004 39.670400 5.681500 -22.851500 -2.192480 -6.469440 -0.000000 -174.581000 -8.918900 -2.143780 39.081100 -0.000007 -0.000012 -0.218031 0.398805 28.666300 40.985400 -0.000006 -0.000013 -0.747808 2.944320 -72.315400 11.754300 -0.000000 0.000003 -0.000213 -0.001949 -16.651000 -2.192510 6.469440 -0.000001 177.075000 20.171400 179.114000 -39.081100 -0.002282 -0.040193 0.008073 -0.009122 27.586100 -40.985400 0.000008 0.000006 6.506000 12.676400 -72.401000 -11.754300 -0.000006 -0.000006 -0.035494 -0.059821 -17.369800
0.000000 0.000000 0.000000 0.000000 0.000000 -0.000000 -0.489574 90.810200 4.657030 88.147900 -1.775910 4.774170 15.735700 0.000005 -0.000001 80.948600 88.380000 -81.260300 8.984550 -0.406207 -0.000000 -4.567590 -0.475756 -0.642820 16.377300 -0.000001 -0.000001 8.027890 -3.333630 3.414540 6.456720 -0.000001 -0.000000 2.512060 -3.219750 1.932560 12.994200 -0.242716 4.980390 -82.349800 -13.373000 -59.854700 5.348090 -0.000007 -0.000001 -44.758000 -61.571600 -92.803300 24.328600 0.000019 0.000005 9.228450 5.416700 -59.832500 22.291600 -0.000001 0.000005 29.845600 5.243710 1.650580 12.994500 -0.242716 -4.980390 94.697000 -10.216700 -65.145900 -5.348130 -0.000001 -0.000004 -50.664200 -59.375400 -94.163800 -24.328900 0.000322 -0.000009 -12.026300 -7.233800 -59.420400 -22.291500 -0.000108 -0.000004 33.693100 5.671190 -17.042900 -2.192480 -6.469440 -0.000000 -174.486000 -9.169960 -1.428880 39.081100 -0.000007 -0.000012 -0.226998 0.410837 28.922100 40.985400 -0.000006 -0.000013 -0.739291 2.993180 -72.618700 11.754300 -0.000000 0.000003 -0.000235 -0.002119 -16.657100 -2.192510 6.469440 -0.000001 176.789000 19.658500 179.804000 -39.081100 -0.002282 -0.040193 0.007550 -0.008045 27.809500 -40.985400 0.000008 0.000006 6.465970 12.476700 -72.812800 -11.754300 -0.000006 -0.000006 -0.001146 -0.017454 -17.282900
0.000000 0.000000 0.000000 0.000000 0.000000 -0.000000 -0.470962 90.687500 4.691840 88.222200 -2.349010 5.478640 15.735700 0.000005 -0.000001 80.657000 88.041100 -80.866400 8.984550 -0.406207 -0.000000 -3.901330 -0.614323 -0.439893 16.377300 -0.000001 -0.000001 7.456630 -3.580490 3.893290 6.456720 -0.000001 -0.000000 2.747620 -3.051430 1.863220 12.994200 -0.242716 4.980390 -83.220100 -12.314500 -60.863800 5.348090 -0.000007 -0.000001 -38.649800 -58.949400 -79.959400 24.328600 0.000019 0.000005 6.615090 5.100110 -52.519400 22.291600 -0.000001 0.000005 24.425900 5.055960 6.142870 12.994500 -0.242716 -4.980390 93.924000 -9.065570 -66.475300 -5.348130 -0.000001 -0.000004 -50.414600 -57.021000 -88.741400 -24.328900 0.000322 -0.000009 -11.381800 -10.318900 -48.338200 -22.291500 -0.000108 -0.000004 29.070800 5.545600 -8.362180 -2.192480 -6.469440 -0.000000 -174.475000 -9.333120 -0.851778 39.081100 -0.000007 -0.000012 -0.227745 0.403267 29.456000 40.985400 -0.000006 -0.000013 -0.791637 2.685040 -72.986600 11.754300 -0.000000 0.000003 -0.000239 -0.002150 -16.658200 -2.192510 6.469440 -0.000001 176.607000 18.714600 -179.811000 -39.081100 -0.002282 -0.040193 0.009178 -0.010847 28.431400 -40.985400 0.000008 0.000006 6.507400 12.086800 -73.259100 -11.754300 -0.000006 -0.000006 -0.001088 -0.016653 -17.250400
